<svg xmlns="http://www.w3.org/2000/svg" xmlns:xlink="http://www.w3.org/1999/xlink" width="500" zoomAndPan="magnify" viewBox="0 0 375 374.999991" height="500" preserveAspectRatio="xMidYMid meet" version="1.0"><defs><clipPath id="id1"><path d="M 112 223 L 119 223 L 119 226.285156 L 112 226.285156 Z M 112 223 " clip-rule="nonzero"/></clipPath><clipPath id="id2"><path d="M 196 161 L 248 161 L 248 226.285156 L 196 226.285156 Z M 196 161 " clip-rule="nonzero"/></clipPath><clipPath id="id3"><path d="M 79.433594 220 L 315.683594 220 L 315.683594 226.285156 L 79.433594 226.285156 Z M 79.433594 220 " clip-rule="nonzero"/></clipPath><clipPath id="id4"><path d="M 302 223 L 308 223 L 308 226.285156 L 302 226.285156 Z M 302 223 " clip-rule="nonzero"/></clipPath><clipPath id="id5"><path d="M 191 87.535156 L 243 87.535156 L 243 111 L 191 111 Z M 191 87.535156 " clip-rule="nonzero"/></clipPath></defs><path fill="#ff4c29" d="M 39.511719 59.066406 C 52.097656 35.132812 81.1875 33.734375 105.589844 35.972656 C 132.859375 38.492188 146.910156 31.214844 169.914062 17.847656 C 188.585938 7 205.855469 7.347656 225.644531 17.496094 C 249.554688 29.8125 244.660156 51.859375 264.03125 65.855469 C 282 78.871094 309.128906 73.0625 328.21875 85.097656 C 347.375 97.207031 352.550781 118.132812 351.5 139.753906 C 350.035156 169.21875 334.859375 196.792969 340.246094 226.675781 C 344.578125 250.746094 369.679688 275.453125 357.164062 300.855469 C 333.742188 348.375 260.605469 308.554688 222.984375 315.480469 C 182.292969 323.039062 120.621094 368.179688 81.464844 328.078125 C 64.125 310.371094 73.496094 282.167969 73.144531 260.546875 C 72.65625 230.453125 62.378906 221.355469 41.402344 201.761719 C 21.191406 182.933594 5.179688 173.558594 13.152344 145.074219 C 17.90625 128 41.121094 124.21875 45.457031 112.953125 C 50.699219 98.886719 32.3125 72.644531 39.511719 59.066406 Z M 39.511719 59.066406 " fill-opacity="1" fill-rule="nonzero"/><g clip-path="url(#id1)"><path fill="#734d30" d="M 118.371094 226.179688 L 118.371094 223.386719 L 112.984375 223.386719 L 112.984375 226.179688 L 118.371094 226.179688 " fill-opacity="1" fill-rule="nonzero"/></g><path fill="#151b21" d="M 254.210938 217.261719 C 254.210938 220.644531 251.234375 223.386719 247.558594 223.386719 L 213.609375 223.386719 C 209.941406 223.386719 206.960938 220.644531 206.960938 217.261719 L 206.960938 178.207031 C 206.960938 174.824219 209.941406 172.082031 213.609375 172.082031 L 247.558594 172.082031 C 251.234375 172.082031 254.210938 174.824219 254.210938 178.207031 L 254.210938 217.261719 " fill-opacity="1" fill-rule="nonzero"/><path fill="#2f6d78" d="M 256.421875 110.027344 C 256.421875 111.71875 255.046875 113.089844 253.355469 113.089844 L 235.859375 113.089844 C 234.167969 113.089844 232.800781 111.71875 232.800781 110.027344 C 232.800781 108.335938 234.167969 106.964844 235.859375 106.964844 L 253.355469 106.964844 C 255.046875 106.964844 256.421875 108.335938 256.421875 110.027344 " fill-opacity="1" fill-rule="nonzero"/><path fill="#7dcdca" d="M 205.550781 189.03125 L 189.15625 189.03125 L 189.15625 163.417969 L 205.550781 162.011719 L 205.550781 189.03125 " fill-opacity="1" fill-rule="nonzero"/><path fill="#070a0b" d="M 221.769531 133.910156 L 192.152344 133.910156 L 192.152344 104.480469 L 221.769531 104.480469 L 221.769531 133.910156 " fill-opacity="1" fill-rule="nonzero"/><g clip-path="url(#id2)"><path fill="#2e866c" d="M 247.34375 226.179688 L 247.34375 171.550781 C 247.34375 166.28125 247.902344 161.378906 242.636719 161.378906 L 205.730469 162.011719 C 200.464844 162.011719 196.191406 166.28125 196.191406 171.550781 L 196.191406 226.179688 L 247.34375 226.179688 " fill-opacity="1" fill-rule="nonzero"/></g><path fill="#e19873" d="M 242.558594 215.589844 C 242.605469 215.273438 242.636719 214.953125 242.636719 214.628906 C 242.636719 208.773438 235.433594 204.023438 226.550781 204.023438 C 217.671875 204.023438 210.46875 208.773438 210.46875 214.628906 C 210.46875 214.953125 210.5 215.273438 210.542969 215.589844 L 242.558594 215.589844 " fill-opacity="1" fill-rule="nonzero"/><path fill="#226952" d="M 267.375 169.558594 C 265.796875 168.140625 263.347656 166.664062 262.214844 166.050781 C 257.996094 163.902344 242.582031 159.726562 240.023438 162.285156 C 237.472656 164.839844 238.984375 171.53125 241.945312 174.492188 C 243.625 176.175781 245.804688 177.003906 247.835938 176.933594 C 252.253906 177.316406 259.128906 177.703125 262.191406 180.457031 C 264.417969 182.457031 264.789062 186.253906 264.789062 189.859375 C 264.789062 199.140625 261.734375 201.621094 258.628906 204.304688 C 254.957031 207.484375 248.15625 206.488281 240.957031 205.433594 C 237.582031 204.941406 234.089844 204.433594 230.726562 204.347656 L 230.445312 215.269531 C 233.160156 215.339844 236.179688 215.777344 239.375 216.246094 C 243.128906 216.796875 247.089844 217.375 250.980469 217.375 C 256.296875 217.375 261.472656 216.292969 265.777344 212.574219 C 271.515625 207.613281 274.304688 198.925781 274.304688 186.011719 C 274.304688 179.324219 271.910156 173.632812 267.375 169.558594 " fill-opacity="1" fill-rule="nonzero"/><path fill="#d08f6d" d="M 236.914062 167.734375 C 236.914062 170.429688 233.523438 172.609375 229.339844 172.609375 C 225.160156 172.609375 221.769531 170.429688 221.769531 167.734375 L 221.769531 156.292969 C 221.769531 153.597656 225.160156 151.417969 229.339844 151.417969 C 233.523438 151.417969 236.914062 153.597656 236.914062 156.292969 L 236.914062 167.734375 " fill-opacity="1" fill-rule="nonzero"/><path fill="#e19873" d="M 242.636719 149.605469 C 242.636719 154.871094 238.363281 159.140625 233.09375 159.140625 L 204.160156 159.140625 C 198.894531 159.140625 194.621094 154.871094 194.621094 149.605469 L 194.621094 104.527344 C 194.621094 99.265625 198.894531 94.992188 204.160156 94.992188 L 233.09375 94.992188 C 238.363281 94.992188 242.636719 99.265625 242.636719 104.527344 L 242.636719 149.605469 " fill-opacity="1" fill-rule="nonzero"/><path fill="#070a0b" d="M 239.042969 102.015625 C 237.0625 102.015625 235.457031 103.621094 235.457031 105.601562 L 235.457031 127.808594 C 235.457031 128.988281 236.035156 130.027344 236.914062 130.679688 L 236.914062 133.910156 L 242.636719 131.511719 L 242.636719 105.601562 C 242.636719 103.621094 241.027344 102.015625 239.042969 102.015625 " fill-opacity="1" fill-rule="nonzero"/><path fill="#e19873" d="M 239.738281 133.910156 C 242.964844 133.746094 245.535156 131.085938 245.535156 127.816406 C 245.535156 124.546875 242.964844 121.886719 239.738281 121.726562 L 239.738281 133.910156 " fill-opacity="1" fill-rule="nonzero"/><g clip-path="url(#id3)"><path fill="#734d30" d="M 80.996094 226.179688 L 314.117188 226.179688 C 315.054688 225.597656 315.683594 224.570312 315.683594 223.386719 C 315.683594 221.570312 314.210938 220.09375 312.398438 220.09375 L 82.722656 220.09375 C 80.90625 220.09375 79.429688 221.570312 79.429688 223.386719 C 79.429688 224.570312 80.058594 225.597656 80.996094 226.179688 " fill-opacity="1" fill-rule="nonzero"/></g><g clip-path="url(#id4)"><path fill="#734d30" d="M 307.734375 226.179688 L 307.734375 223.386719 L 302.351562 223.386719 L 302.351562 226.179688 L 307.734375 226.179688 " fill-opacity="1" fill-rule="nonzero"/></g><path fill="#0f090a" d="M 203.769531 127.296875 C 203.769531 129.625 202.316406 131.511719 200.535156 131.511719 C 198.746094 131.511719 197.296875 129.625 197.296875 127.296875 C 197.296875 124.96875 198.746094 123.082031 200.535156 123.082031 C 202.316406 123.082031 203.769531 124.96875 203.769531 127.296875 " fill-opacity="1" fill-rule="nonzero"/><path fill="#271511" d="M 203.566406 119.820312 C 203.566406 119.476562 203.289062 119.195312 202.945312 119.195312 L 196.816406 119.195312 C 196.472656 119.195312 196.191406 119.476562 196.191406 119.820312 C 196.191406 120.164062 196.472656 120.445312 196.816406 120.445312 L 202.945312 120.445312 C 203.289062 120.445312 203.566406 120.164062 203.566406 119.820312 " fill-opacity="1" fill-rule="nonzero"/><path fill="#271511" d="M 224.144531 119.820312 C 224.144531 119.476562 223.863281 119.195312 223.519531 119.195312 L 217.390625 119.195312 C 217.046875 119.195312 216.765625 119.476562 216.765625 119.820312 C 216.765625 120.164062 217.046875 120.445312 217.390625 120.445312 L 223.519531 120.445312 C 223.863281 120.445312 224.144531 120.164062 224.144531 119.820312 " fill-opacity="1" fill-rule="nonzero"/><path fill="#0f090a" d="M 223.238281 127.296875 C 223.238281 129.625 221.789062 131.511719 220.003906 131.511719 C 218.214844 131.511719 216.765625 129.625 216.765625 127.296875 C 216.765625 124.96875 218.214844 123.082031 220.003906 123.082031 C 221.789062 123.082031 223.238281 124.96875 223.238281 127.296875 " fill-opacity="1" fill-rule="nonzero"/><path fill="#ffffff" d="M 202.171875 145.648438 C 202.394531 150.140625 206.097656 153.714844 210.644531 153.714844 C 215.195312 153.714844 218.894531 150.140625 219.121094 145.648438 L 202.171875 145.648438 " fill-opacity="1" fill-rule="nonzero"/><path fill="#141a1e" d="M 228.320312 217.371094 C 228.320312 219.222656 226.660156 220.722656 224.613281 220.722656 L 161.445312 220.722656 C 159.402344 220.722656 157.738281 219.222656 157.738281 217.371094 C 157.738281 215.519531 159.402344 214.019531 161.445312 214.019531 L 224.613281 214.019531 C 226.660156 214.019531 228.320312 215.519531 228.320312 217.371094 " fill-opacity="1" fill-rule="nonzero"/><path fill="#141a1e" d="M 171.4375 220.722656 L 155.898438 220.722656 L 155.898438 201.945312 L 171.4375 201.945312 L 171.4375 220.722656 " fill-opacity="1" fill-rule="nonzero"/><path fill="#141a1e" d="M 217.128906 209.824219 L 118.570312 209.824219 L 105.753906 151.417969 L 204.308594 151.417969 L 217.128906 209.824219 " fill-opacity="1" fill-rule="nonzero"/><path fill="#282f38" d="M 213.722656 209.824219 L 115.164062 209.824219 L 102.347656 151.417969 L 200.902344 151.417969 L 213.722656 209.824219 " fill-opacity="1" fill-rule="nonzero"/><path fill="#3c4554" d="M 169.417969 180.625 C 169.417969 186.90625 164.320312 192.003906 158.035156 192.003906 C 151.746094 192.003906 146.648438 186.90625 146.648438 180.625 C 146.648438 174.335938 151.746094 169.242188 158.035156 169.242188 C 164.320312 169.242188 169.417969 174.335938 169.417969 180.625 " fill-opacity="1" fill-rule="nonzero"/><path fill="#252c34" d="M 168.910156 220.722656 L 153.375 220.722656 L 153.375 201.945312 L 168.910156 201.945312 L 168.910156 220.722656 " fill-opacity="1" fill-rule="nonzero"/><g clip-path="url(#id5)"><path fill="#3b8491" d="M 242.875 110.292969 L 242.875 101.207031 C 242.875 93.714844 238.140625 87.640625 232.292969 87.640625 L 201.960938 87.640625 C 196.117188 87.640625 191.378906 93.714844 191.378906 101.207031 L 191.378906 110.292969 L 242.875 110.292969 " fill-opacity="1" fill-rule="nonzero"/></g><path fill="#070a0b" d="M 221.949219 106.964844 L 221.949219 103.757812 C 221.949219 101.113281 220.277344 98.96875 218.214844 98.96875 L 207.503906 98.96875 C 205.445312 98.96875 203.769531 101.113281 203.769531 103.757812 L 203.769531 106.964844 L 221.949219 106.964844 " fill-opacity="1" fill-rule="nonzero"/><path fill="#ed7252" d="M 294.621094 183.039062 C 294.5625 183.367188 294.242188 183.582031 293.914062 183.523438 C 293.589844 183.460938 293.371094 183.144531 293.429688 182.820312 L 293.671875 181.519531 C 293.734375 181.1875 294.050781 180.972656 294.378906 181.035156 C 294.707031 181.09375 294.925781 181.410156 294.863281 181.742188 L 294.621094 183.039062 " fill-opacity="1" fill-rule="nonzero"/><path fill="#262d36" d="M 289.722656 209.375 L 288.53125 209.152344 L 293.390625 183.050781 L 294.578125 183.273438 L 289.722656 209.375 " fill-opacity="1" fill-rule="nonzero"/><path fill="#c3bf63" d="M 294.375 184.378906 L 293.179688 184.15625 L 293.542969 182.230469 L 294.730469 182.453125 L 294.375 184.378906 " fill-opacity="1" fill-rule="nonzero"/><path fill="#c3bf63" d="M 289.710938 209.371094 L 288.695312 211.582031 L 288.542969 209.15625 L 289.710938 209.371094 " fill-opacity="1" fill-rule="nonzero"/><path fill="#1e1f14" d="M 288.660156 210.992188 L 288.695312 211.582031 L 288.941406 211.046875 L 288.660156 210.992188 " fill-opacity="1" fill-rule="nonzero"/><path fill="#adb1b6" d="M 289.03125 210.847656 L 289.160156 210.570312 L 289.03125 210.847656 M 290.421875 205.625 L 294.371094 184.378906 L 294.375 184.378906 L 290.421875 205.621094 L 290.421875 205.625 M 294.617188 183.058594 L 294.621094 183.042969 C 294.621094 183.042969 294.621094 183.042969 294.621094 183.039062 L 294.617188 183.058594 " fill-opacity="1" fill-rule="nonzero"/><path fill="#a15340" d="M 294.621094 183.042969 L 294.730469 182.453125 L 294.136719 182.339844 L 294.378906 181.035156 C 294.671875 181.085938 294.871094 181.34375 294.871094 181.632812 C 294.871094 181.667969 294.871094 181.707031 294.863281 181.742188 L 294.730469 182.453125 L 294.621094 183.039062 C 294.621094 183.042969 294.621094 183.042969 294.621094 183.042969 " fill-opacity="1" fill-rule="nonzero"/><path fill="#1c2128" d="M 289.355469 208.03125 L 293.777344 184.265625 L 294.371094 184.378906 L 290.421875 205.625 L 289.695312 207.265625 L 289.355469 208.03125 " fill-opacity="1" fill-rule="nonzero"/><path fill="#86864d" d="M 294.375 184.378906 L 294.371094 184.378906 L 293.777344 184.265625 L 293.914062 183.523438 L 293.984375 183.160156 L 294.136719 182.339844 L 294.730469 182.453125 L 294.621094 183.042969 L 294.617188 183.058594 L 294.578125 183.273438 L 294.375 184.378906 " fill-opacity="1" fill-rule="nonzero"/><path fill="#86864d" d="M 289.03125 210.847656 L 288.890625 210.539062 L 288.894531 210.503906 C 288.902344 210.507812 288.914062 210.511719 288.921875 210.515625 C 289 210.550781 289.082031 210.566406 289.160156 210.570312 L 289.03125 210.847656 " fill-opacity="1" fill-rule="nonzero"/><path fill="#ed7252" d="M 288.699219 176.585938 C 288.703125 176.917969 288.433594 177.195312 288.105469 177.199219 C 287.773438 177.203125 287.492188 176.9375 287.484375 176.601562 L 287.46875 175.285156 C 287.460938 174.949219 287.726562 174.675781 288.058594 174.667969 C 288.394531 174.664062 288.671875 174.933594 288.675781 175.265625 L 288.699219 176.585938 " fill-opacity="1" fill-rule="nonzero"/><path fill="#262d36" d="M 289.140625 203.371094 L 287.925781 203.390625 L 287.492188 176.839844 L 288.703125 176.820312 L 289.140625 203.371094 " fill-opacity="1" fill-rule="nonzero"/><path fill="#c3bf63" d="M 288.71875 177.945312 L 287.511719 177.96875 L 287.476562 176.003906 L 288.6875 175.984375 L 288.71875 177.945312 " fill-opacity="1" fill-rule="nonzero"/><path fill="#c3bf63" d="M 289.125 203.371094 L 288.570312 205.734375 L 287.941406 203.390625 L 289.125 203.371094 " fill-opacity="1" fill-rule="nonzero"/><path fill="#1e1f14" d="M 288.417969 205.164062 L 288.570312 205.734375 L 288.703125 205.164062 L 288.417969 205.164062 " fill-opacity="1" fill-rule="nonzero"/><path fill="#adb1b6" d="M 288.570312 205.734375 L 288.703125 205.164062 L 289.125 203.371094 L 288.703125 205.164062 L 288.570312 205.734375 M 288.703125 176.820312 L 288.699219 176.632812 C 288.699219 176.617188 288.699219 176.601562 288.699219 176.589844 L 288.703125 176.820312 M 288.058594 174.667969 C 288.066406 174.667969 288.066406 174.667969 288.070312 174.667969 C 288.066406 174.667969 288.066406 174.667969 288.058594 174.667969 M 288.074219 174.667969 C 288.074219 174.667969 288.074219 174.667969 288.070312 174.667969 C 288.074219 174.667969 288.074219 174.667969 288.074219 174.667969 " fill-opacity="1" fill-rule="nonzero"/><path fill="#a15340" d="M 288.699219 176.632812 L 288.6875 175.984375 L 288.699219 176.585938 L 288.699219 176.589844 C 288.699219 176.601562 288.699219 176.617188 288.699219 176.632812 M 288.082031 175.996094 L 288.058594 174.667969 C 288.066406 174.667969 288.066406 174.667969 288.070312 174.667969 C 288.074219 174.667969 288.074219 174.667969 288.074219 174.667969 C 288.402344 174.671875 288.671875 174.9375 288.675781 175.265625 L 288.6875 175.984375 L 288.082031 175.996094 " fill-opacity="1" fill-rule="nonzero"/><path fill="#1c2128" d="M 288.53125 203.378906 L 288.117188 177.957031 L 288.71875 177.945312 L 289.140625 203.371094 L 289.125 203.371094 L 288.53125 203.378906 M 288.71875 177.945312 L 288.703125 176.820312 L 288.71875 177.945312 " fill-opacity="1" fill-rule="nonzero"/><path fill="#86864d" d="M 288.117188 177.957031 L 288.113281 177.957031 L 288.105469 177.199219 L 288.097656 176.832031 L 288.082031 175.996094 L 288.6875 175.984375 L 288.699219 176.632812 L 288.703125 176.820312 L 288.71875 177.945312 L 288.117188 177.957031 " fill-opacity="1" fill-rule="nonzero"/><path fill="#86864d" d="M 288.5625 205.164062 L 288.53125 203.382812 L 288.53125 203.378906 L 289.125 203.371094 L 288.703125 205.164062 L 288.5625 205.164062 " fill-opacity="1" fill-rule="nonzero"/><path fill="#171812" d="M 288.570312 205.734375 L 288.5625 205.164062 L 288.703125 205.164062 L 288.570312 205.734375 " fill-opacity="1" fill-rule="nonzero"/><path fill="#ed7252" d="M 289.148438 208.511719 C 289.28125 208.203125 289.640625 208.066406 289.945312 208.199219 C 290.246094 208.335938 290.386719 208.691406 290.253906 209 L 289.71875 210.203125 C 289.585938 210.511719 289.230469 210.648438 288.921875 210.515625 C 288.617188 210.378906 288.480469 210.023438 288.613281 209.71875 L 289.148438 208.511719 " fill-opacity="1" fill-rule="nonzero"/><path fill="#262d36" d="M 299.964844 184.003906 L 301.074219 184.492188 L 290.351562 208.78125 L 289.242188 208.292969 L 299.964844 184.003906 " fill-opacity="1" fill-rule="nonzero"/><path fill="#c3bf63" d="M 289.695312 207.265625 L 290.804688 207.753906 L 290.011719 209.546875 L 288.902344 209.058594 L 289.695312 207.265625 " fill-opacity="1" fill-rule="nonzero"/><path fill="#c3bf63" d="M 299.976562 184.007812 L 301.472656 182.089844 L 301.058594 184.484375 L 299.976562 184.007812 " fill-opacity="1" fill-rule="nonzero"/><path fill="#1e1f14" d="M 301.371094 182.675781 L 301.472656 182.089844 L 301.109375 182.554688 L 301.371094 182.675781 " fill-opacity="1" fill-rule="nonzero"/><path fill="#adb1b6" d="M 288.839844 209.210938 L 288.835938 209.210938 L 288.839844 209.210938 M 290.421875 205.625 L 290.421875 205.621094 L 299.964844 184.003906 L 290.421875 205.625 M 300.519531 184.246094 L 300.410156 184.195312 L 300.519531 184.246094 " fill-opacity="1" fill-rule="nonzero"/><path fill="#1c2128" d="M 288.839844 209.210938 L 288.902344 209.058594 L 288.839844 209.210938 " fill-opacity="1" fill-rule="nonzero"/><path fill="#86864d" d="M 288.613281 209.71875 L 288.835938 209.210938 L 288.839844 209.210938 L 288.613281 209.71875 " fill-opacity="1" fill-rule="nonzero"/><path fill="#15181d" d="M 289.695312 207.265625 L 290.421875 205.625 L 289.695312 207.265625 " fill-opacity="1" fill-rule="nonzero"/><path fill="#a15340" d="M 288.921875 210.515625 C 288.902344 210.507812 288.886719 210.5 288.871094 210.488281 L 288.574219 209.835938 C 288.582031 209.796875 288.59375 209.757812 288.613281 209.71875 L 288.839844 209.210938 L 288.902344 209.058594 L 289.457031 209.304688 L 288.921875 210.515625 " fill-opacity="1" fill-rule="nonzero"/><path fill="#1c2128" d="M 290.25 207.507812 L 289.695312 207.265625 L 290.421875 205.625 L 299.964844 184.003906 L 299.976562 184.007812 L 300.410156 184.195312 L 300.519531 184.246094 L 290.25 207.507812 " fill-opacity="1" fill-rule="nonzero"/><path fill="#86864d" d="M 289.457031 209.304688 L 288.902344 209.058594 L 289.148438 208.511719 L 289.242188 208.292969 L 289.695312 207.265625 L 290.25 207.507812 L 289.945312 208.199219 L 289.796875 208.539062 L 289.460938 209.300781 L 289.457031 209.304688 " fill-opacity="1" fill-rule="nonzero"/><path fill="#86864d" d="M 300.519531 184.246094 L 300.410156 184.195312 L 299.976562 184.007812 L 301.109375 182.554688 L 301.238281 182.613281 L 300.523438 184.246094 L 300.519531 184.246094 " fill-opacity="1" fill-rule="nonzero"/><path fill="#171812" d="M 301.238281 182.613281 L 301.109375 182.554688 L 301.472656 182.089844 L 301.242188 182.613281 L 301.238281 182.613281 " fill-opacity="1" fill-rule="nonzero"/><path fill="#ed7252" d="M 287.4375 210.257812 C 287.296875 209.953125 287.429688 209.597656 287.734375 209.457031 C 288.039062 209.320312 288.398438 209.453125 288.535156 209.757812 L 289.085938 210.957031 C 289.222656 211.261719 289.085938 211.621094 288.785156 211.757812 C 288.480469 211.898438 288.117188 211.761719 287.980469 211.460938 L 287.4375 210.257812 " fill-opacity="1" fill-rule="nonzero"/><path fill="#262d36" d="M 276.339844 185.875 L 277.441406 185.371094 L 288.441406 209.539062 L 287.335938 210.042969 L 276.339844 185.875 " fill-opacity="1" fill-rule="nonzero"/><path fill="#c3bf63" d="M 286.871094 209.019531 L 287.972656 208.519531 L 288.785156 210.300781 L 287.683594 210.804688 L 286.871094 209.019531 " fill-opacity="1" fill-rule="nonzero"/><path fill="#c3bf63" d="M 276.351562 185.871094 L 275.914062 183.476562 L 277.429688 185.378906 L 276.351562 185.871094 " fill-opacity="1" fill-rule="nonzero"/><path fill="#1e1f14" d="M 276.28125 183.941406 L 275.914062 183.476562 L 276.019531 184.058594 L 276.28125 183.941406 " fill-opacity="1" fill-rule="nonzero"/><path fill="#adb1b6" d="M 288.53125 211.8125 C 288.53125 211.8125 288.527344 211.8125 288.527344 211.8125 C 288.527344 211.8125 288.53125 211.8125 288.53125 211.8125 M 288.535156 211.8125 C 288.609375 211.8125 288.6875 211.796875 288.761719 211.769531 C 288.6875 211.796875 288.609375 211.8125 288.535156 211.8125 M 288.773438 211.761719 C 288.777344 211.761719 288.78125 211.761719 288.785156 211.757812 C 288.78125 211.761719 288.777344 211.761719 288.773438 211.761719 M 287.996094 211.488281 C 287.988281 211.480469 287.984375 211.46875 287.980469 211.460938 C 287.984375 211.46875 287.988281 211.480469 287.996094 211.488281 M 287.351562 210.078125 L 287.335938 210.042969 L 287.351562 210.078125 " fill-opacity="1" fill-rule="nonzero"/><path fill="#a15340" d="M 288.53125 211.8125 C 288.53125 211.8125 288.527344 211.8125 288.527344 211.8125 C 288.308594 211.808594 288.097656 211.691406 287.996094 211.488281 C 287.988281 211.480469 287.984375 211.46875 287.980469 211.460938 L 287.683594 210.804688 L 288.234375 210.554688 L 288.785156 211.757812 C 288.78125 211.761719 288.777344 211.761719 288.773438 211.761719 C 288.769531 211.761719 288.765625 211.765625 288.761719 211.769531 C 288.6875 211.796875 288.609375 211.8125 288.535156 211.8125 L 288.53125 211.8125 " fill-opacity="1" fill-rule="nonzero"/><path fill="#1c2128" d="M 287.335938 210.042969 L 286.871094 209.019531 L 276.339844 185.875 L 276.351562 185.871094 L 276.890625 185.625 L 287.421875 208.769531 L 286.871094 209.019531 L 287.335938 210.042969 " fill-opacity="1" fill-rule="nonzero"/><path fill="#86864d" d="M 287.683594 210.804688 L 287.4375 210.257812 L 287.351562 210.078125 L 287.335938 210.042969 L 286.871094 209.019531 L 287.421875 208.769531 L 287.734375 209.457031 L 287.890625 209.789062 L 288.234375 210.554688 L 287.683594 210.804688 " fill-opacity="1" fill-rule="nonzero"/><path fill="#86864d" d="M 276.351562 185.871094 L 276.019531 184.058594 L 275.914062 183.476562 L 276.019531 184.058594 L 276.152344 184 L 276.886719 185.621094 L 276.890625 185.625 L 276.351562 185.871094 " fill-opacity="1" fill-rule="nonzero"/><path fill="#171812" d="M 276.019531 184.058594 L 275.914062 183.476562 L 276.152344 184 L 276.019531 184.058594 " fill-opacity="1" fill-rule="nonzero"/><path fill="#3b8491" d="M 296.648438 220.796875 L 280.613281 220.796875 L 280.613281 196.914062 L 296.648438 196.914062 L 296.648438 220.796875 " fill-opacity="1" fill-rule="nonzero"/></svg>