<svg xmlns="http://www.w3.org/2000/svg" xmlns:xlink="http://www.w3.org/1999/xlink" width="500" zoomAndPan="magnify" viewBox="0 0 375 374.999991" height="500" preserveAspectRatio="xMidYMid meet" version="1.0"><defs><clipPath id="id1"><path d="M 98.90625 0 L 275.90625 0 L 275.90625 375 L 98.90625 375 Z M 98.90625 0 " clip-rule="nonzero"/></clipPath></defs><g clip-path="url(#id1)"><path fill="#ffffff" d="M 235.121094 62.214844 L 275.941406 62.214844 L 275.941406 0.570312 L 223.761719 0.570312 L 223.761719 0.796875 C 155.210938 3.28125 141.140625 41.796875 139.894531 82.371094 L 139.765625 82.371094 L 139.765625 125.171875 L 98.9375 125.171875 L 98.9375 186.851562 L 139.765625 186.851562 L 139.765625 374.449219 L 213.050781 374.449219 L 213.050781 186.851562 L 265.574219 186.851562 L 275.945312 125.171875 L 213.050781 125.171875 L 213.050781 86.890625 C 213.050781 73.273438 222.125 62.214844 235.121094 62.214844 Z M 235.121094 62.214844 " fill-opacity="1" fill-rule="nonzero"/></g></svg>