<svg xmlns="http://www.w3.org/2000/svg" xmlns:xlink="http://www.w3.org/1999/xlink" width="500" zoomAndPan="magnify" viewBox="0 0 375 374.999991" height="500" preserveAspectRatio="xMidYMid meet" version="1.0"><defs><clipPath id="id1"><path d="M 148 25.078125 L 287 25.078125 L 287 141 L 148 141 Z M 148 25.078125 " clip-rule="nonzero"/></clipPath><clipPath id="id2"><path d="M 148 234 L 287 234 L 287 349.828125 L 148 349.828125 Z M 148 234 " clip-rule="nonzero"/></clipPath></defs><path fill="#ffffff" d="M 73.609375 233.390625 C 64.152344 233.101562 56.519531 212.539062 56.519531 187.199219 C 56.519531 161.863281 64.152344 141.304688 73.609375 141.011719 C 70.949219 137.355469 67.933594 135.277344 64.734375 135.277344 C 54 135.277344 45.300781 158.523438 45.300781 187.199219 C 45.300781 215.878906 54 239.128906 64.734375 239.128906 C 67.933594 239.128906 70.949219 237.050781 73.609375 233.390625 " fill-opacity="1" fill-rule="nonzero"/><path fill="#ffffff" d="M 135.605469 76.285156 Z M 130.230469 76.707031 C 131.828125 75.105469 134.429688 75.105469 136.027344 76.707031 C 137.625 78.304688 137.625 80.90625 136.027344 82.503906 C 134.429688 84.101562 131.828125 84.101562 130.230469 82.503906 C 128.625 80.90625 128.628906 78.304688 130.230469 76.707031 Z M 186.664062 85.609375 C 186.664062 87.871094 184.828125 89.710938 182.566406 89.710938 C 180.300781 89.710938 178.464844 87.871094 178.464844 85.609375 C 178.464844 83.347656 180.300781 81.507812 182.566406 81.507812 C 184.828125 81.507812 186.664062 83.347656 186.664062 85.609375 Z M 133.488281 137.296875 L 151.90625 118.882812 L 151.90625 97.640625 L 162.683594 86.867188 L 177.367188 86.867188 C 177.9375 89.214844 180.042969 90.96875 182.566406 90.96875 C 185.519531 90.96875 187.925781 88.5625 187.925781 85.609375 C 187.925781 82.65625 185.519531 80.253906 182.566406 80.253906 C 180.042969 80.253906 177.9375 82.007812 177.371094 84.351562 L 161.640625 84.351562 L 150.648438 95.339844 L 137.691406 82.386719 C 138.945312 80.324219 138.699219 77.597656 136.917969 75.816406 C 134.828125 73.726562 131.429688 73.726562 129.335938 75.816406 C 127.25 77.90625 127.25 81.304688 129.335938 83.390625 C 128.816406 82.871094 128.292969 82.347656 129.335938 83.390625 C 129.59375 83.652344 129.753906 83.808594 129.847656 83.902344 C 129.734375 83.789062 129.535156 83.59375 129.335938 83.394531 C 131.121094 85.175781 133.847656 85.421875 135.910156 84.167969 L 149.390625 97.640625 L 149.390625 117.839844 L 132.441406 134.78125 L 98.09375 134.78125 L 73.414062 159.453125 L 54.953125 159.453125 L 54.953125 161.96875 L 74.453125 161.96875 L 99.136719 137.296875 L 133.488281 137.296875 " fill-opacity="1" fill-rule="nonzero"/><path fill="#ffffff" d="M 129.847656 83.902344 C 129.957031 84.011719 129.984375 84.039062 129.847656 83.902344 " fill-opacity="1" fill-rule="nonzero"/><path fill="#ffffff" d="M 317.449219 182.460938 C 317.449219 184.71875 315.609375 186.5625 313.347656 186.5625 C 311.085938 186.5625 309.246094 184.71875 309.246094 182.460938 C 309.246094 180.199219 311.085938 178.359375 313.347656 178.359375 C 315.609375 178.359375 317.449219 180.199219 317.449219 182.460938 Z M 208.773438 155.613281 L 236.890625 183.71875 L 308.152344 183.71875 C 308.722656 186.0625 310.828125 187.820312 313.347656 187.820312 C 316.300781 187.820312 318.707031 185.417969 318.707031 182.460938 C 318.707031 179.507812 316.300781 177.101562 313.347656 177.101562 C 310.828125 177.101562 308.722656 178.855469 308.152344 181.203125 L 237.933594 181.203125 L 209.820312 153.097656 L 162.117188 153.097656 L 147.617188 171.664062 L 52.808594 171.664062 L 52.808594 174.179688 L 148.847656 174.179688 L 163.347656 155.613281 L 208.773438 155.613281 " fill-opacity="1" fill-rule="nonzero"/><path fill="#ffffff" d="M 149.390625 147.484375 C 149.390625 149.746094 147.550781 151.585938 145.289062 151.585938 C 143.027344 151.585938 141.1875 149.746094 141.1875 147.484375 C 141.1875 145.222656 143.027344 143.386719 145.289062 143.386719 C 147.550781 143.386719 149.390625 145.222656 149.390625 147.484375 Z M 125.328125 163 C 125.328125 160.390625 123.210938 158.273438 120.601562 158.273438 C 118.425781 158.273438 116.613281 159.746094 116.058594 161.746094 L 94.527344 161.746094 L 107.53125 148.742188 L 140.09375 148.742188 C 140.664062 151.089844 142.769531 152.84375 145.289062 152.84375 C 148.242188 152.84375 150.648438 150.4375 150.648438 147.484375 C 150.648438 144.53125 148.242188 142.128906 145.289062 142.128906 C 142.769531 142.128906 140.664062 143.878906 140.09375 146.226562 L 106.492188 146.226562 L 88.453125 164.257812 L 116.058594 164.257812 C 116.613281 166.253906 118.425781 167.730469 120.601562 167.730469 C 123.210938 167.730469 125.328125 165.613281 125.328125 163 " fill-opacity="1" fill-rule="nonzero"/><path fill="#ffffff" d="M 263.988281 144.429688 C 263.988281 142.171875 265.828125 140.332031 268.089844 140.332031 C 270.351562 140.332031 272.1875 142.171875 272.1875 144.429688 C 272.1875 146.691406 270.351562 148.535156 268.089844 148.535156 C 265.828125 148.535156 263.988281 146.691406 263.988281 144.429688 Z M 252.523438 162.902344 L 260.199219 155.226562 L 311.441406 155.226562 L 299.378906 143.175781 L 273.28125 143.175781 C 272.710938 140.828125 270.609375 139.074219 268.089844 139.074219 C 265.132812 139.074219 262.726562 141.476562 262.726562 144.429688 C 262.726562 147.386719 265.132812 149.789062 268.089844 149.789062 C 270.609375 149.789062 272.714844 148.035156 273.28125 145.691406 L 298.339844 145.691406 L 305.363281 152.714844 L 259.15625 152.714844 L 250.742188 161.125 C 248.9375 160.101562 246.613281 160.339844 245.078125 161.878906 C 243.230469 163.722656 243.230469 166.71875 245.078125 168.566406 C 246.925781 170.410156 249.921875 170.410156 251.765625 168.566406 C 253.304688 167.027344 253.542969 164.703125 252.523438 162.902344 " fill-opacity="1" fill-rule="nonzero"/><path fill="#ffffff" d="M 105.882812 126.613281 C 106.4375 128.609375 108.25 130.085938 110.421875 130.085938 C 113.035156 130.085938 115.152344 127.96875 115.152344 125.355469 C 115.152344 122.742188 113.035156 120.625 110.421875 120.625 C 108.25 120.625 106.4375 122.101562 105.882812 124.097656 L 94.023438 124.097656 L 69.851562 148.261719 L 59.546875 148.261719 L 59.546875 150.777344 L 70.890625 150.777344 L 95.066406 126.613281 L 105.882812 126.613281 " fill-opacity="1" fill-rule="nonzero"/><path fill="#ffffff" d="M 136.785156 293.503906 L 150.648438 279.640625 L 161.640625 290.628906 L 178.652344 290.628906 C 179.207031 292.628906 181.019531 294.101562 183.195312 294.101562 C 185.804688 294.101562 187.925781 291.984375 187.925781 289.375 C 187.925781 286.761719 185.804688 284.644531 183.195312 284.644531 C 181.019531 284.644531 179.207031 286.121094 178.652344 288.113281 L 162.683594 288.113281 L 151.90625 277.34375 L 151.90625 256.101562 L 133.488281 237.6875 L 99.136719 237.6875 L 74.453125 213.011719 L 58.082031 213.011719 L 58.082031 215.53125 L 73.414062 215.53125 L 98.09375 240.203125 L 132.441406 240.203125 L 149.390625 257.144531 L 149.390625 277.34375 L 135.003906 291.726562 C 133.199219 290.703125 130.875 290.941406 129.335938 292.476562 C 127.492188 294.324219 127.492188 297.320312 129.335938 299.164062 C 131.183594 301.011719 134.179688 301.011719 136.027344 299.164062 C 137.566406 297.628906 137.804688 295.304688 136.785156 293.503906 " fill-opacity="1" fill-rule="nonzero"/><path fill="#ffffff" d="M 369.664062 274.160156 C 371.925781 274.160156 373.765625 276 373.765625 278.261719 C 373.765625 280.519531 371.925781 282.359375 369.664062 282.359375 C 367.402344 282.359375 365.5625 280.519531 365.5625 278.261719 C 365.5625 276 367.402344 274.160156 369.664062 274.160156 Z M 209.820312 221.886719 L 237.933594 193.78125 L 300.464844 193.78125 L 319.882812 213.191406 L 345.511719 213.191406 L 368.40625 236.082031 L 368.40625 273.070312 C 366.0625 273.636719 364.304688 275.742188 364.304688 278.261719 C 364.304688 281.214844 366.710938 283.617188 369.664062 283.617188 C 372.621094 283.617188 375.023438 281.214844 375.023438 278.261719 C 375.023438 275.742188 373.269531 273.636719 370.925781 273.066406 L 370.925781 235.039062 L 346.554688 210.675781 L 320.925781 210.675781 L 304.023438 193.78125 L 355.113281 193.78125 C 355.667969 195.777344 357.480469 197.25 359.652344 197.25 C 362.261719 197.25 364.382812 195.132812 364.382812 192.523438 C 364.382812 189.910156 362.261719 187.792969 359.652344 187.792969 C 357.480469 187.792969 355.667969 189.265625 355.113281 191.265625 L 236.890625 191.265625 L 208.773438 219.375 L 163.253906 219.375 L 144.683594 200.804688 L 54.953125 200.804688 L 54.953125 203.316406 L 143.636719 203.316406 L 162.210938 221.886719 L 209.820312 221.886719 " fill-opacity="1" fill-rule="nonzero"/><path fill="#ffffff" d="M 149.390625 227.5 C 149.390625 229.757812 147.550781 231.597656 145.289062 231.597656 C 143.027344 231.597656 141.1875 229.757812 141.1875 227.5 C 141.1875 225.238281 143.027344 223.398438 145.289062 223.398438 C 147.550781 223.398438 149.390625 225.238281 149.390625 227.5 Z M 106.492188 228.753906 L 140.09375 228.753906 C 140.664062 231.101562 142.769531 232.855469 145.289062 232.855469 C 148.242188 232.855469 150.648438 230.453125 150.648438 227.5 C 150.648438 224.542969 148.242188 222.140625 145.289062 222.140625 C 142.769531 222.140625 140.664062 223.894531 140.09375 226.242188 L 107.53125 226.242188 L 94.527344 213.238281 L 116.058594 213.238281 C 116.613281 215.234375 118.425781 216.710938 120.601562 216.710938 C 123.210938 216.710938 125.328125 214.59375 125.328125 211.980469 C 125.328125 209.371094 123.210938 207.253906 120.601562 207.253906 C 118.425781 207.253906 116.613281 208.726562 116.058594 210.726562 L 88.453125 210.726562 L 106.492188 228.753906 " fill-opacity="1" fill-rule="nonzero"/><path fill="#ffffff" d="M 263.988281 230.550781 C 263.988281 228.289062 265.828125 226.453125 268.089844 226.453125 C 270.351562 226.453125 272.1875 228.289062 272.1875 230.550781 C 272.1875 232.8125 270.351562 234.652344 268.089844 234.652344 C 265.828125 234.652344 263.988281 232.8125 263.988281 230.550781 Z M 268.089844 225.191406 C 265.132812 225.191406 262.726562 227.597656 262.726562 230.550781 C 262.726562 233.503906 265.132812 235.90625 268.089844 235.90625 C 270.609375 235.90625 272.714844 234.152344 273.28125 231.808594 L 299.378906 231.808594 L 311.441406 219.753906 L 260.199219 219.753906 L 252.523438 212.082031 C 253.542969 210.277344 253.304688 207.953125 251.765625 206.417969 C 249.921875 204.570312 246.925781 204.570312 245.078125 206.417969 C 243.230469 208.265625 243.230469 211.257812 245.078125 213.105469 C 246.613281 214.640625 248.9375 214.878906 250.742188 213.859375 L 259.15625 222.269531 L 305.363281 222.269531 L 298.339844 229.292969 L 273.28125 229.292969 C 272.710938 226.945312 270.609375 225.191406 268.089844 225.191406 " fill-opacity="1" fill-rule="nonzero"/><path fill="#ffffff" d="M 115.152344 249.628906 C 115.152344 247.015625 113.035156 244.898438 110.421875 244.898438 C 108.25 244.898438 106.4375 246.375 105.882812 248.371094 L 95.066406 248.371094 L 70.890625 224.207031 L 59.546875 224.207031 L 59.546875 226.722656 L 69.851562 226.722656 L 94.023438 250.882812 L 105.882812 250.882812 C 106.4375 252.882812 108.25 254.359375 110.421875 254.359375 C 113.035156 254.359375 115.152344 252.242188 115.152344 249.628906 " fill-opacity="1" fill-rule="nonzero"/><g clip-path="url(#id1)"><path fill="#ffffff" d="M 149.488281 135.277344 C 149.488281 133.015625 151.328125 131.175781 153.589844 131.175781 C 155.851562 131.175781 157.691406 133.015625 157.691406 135.277344 C 157.691406 137.535156 155.851562 139.375 153.589844 139.375 C 151.328125 139.375 149.488281 137.535156 149.488281 135.277344 Z M 284.878906 75.117188 C 284.878906 77.378906 283.039062 79.21875 280.777344 79.21875 C 278.515625 79.21875 276.675781 77.378906 276.675781 75.117188 C 276.675781 72.855469 278.515625 71.019531 280.777344 71.019531 C 283.039062 71.019531 284.878906 72.855469 284.878906 75.117188 Z M 170.113281 134.019531 L 158.785156 134.019531 C 158.214844 131.671875 156.109375 129.917969 153.589844 129.917969 C 150.632812 129.917969 148.230469 132.320312 148.230469 135.277344 C 148.230469 138.230469 150.632812 140.632812 153.589844 140.632812 C 156.109375 140.632812 158.214844 138.878906 158.785156 136.53125 L 222.03125 136.53125 L 236.761719 121.808594 L 236.761719 97.132812 L 257.527344 76.375 L 275.585938 76.375 C 276.15625 78.71875 278.257812 80.472656 280.777344 80.472656 C 283.734375 80.472656 286.136719 78.074219 286.136719 75.117188 C 286.136719 72.164062 283.734375 69.757812 280.777344 69.757812 C 278.257812 69.757812 276.15625 71.511719 275.585938 73.859375 L 256.480469 73.859375 L 234.246094 96.089844 L 234.246094 120.761719 L 220.988281 134.019531 L 173.671875 134.019531 L 206.613281 101.085938 L 206.613281 59.417969 L 234.914062 31.125 L 276.234375 31.125 C 276.785156 33.121094 278.597656 34.597656 280.773438 34.597656 C 283.382812 34.597656 285.503906 32.480469 285.503906 29.867188 C 285.503906 27.257812 283.382812 25.140625 280.773438 25.140625 C 278.597656 25.140625 276.785156 26.613281 276.234375 28.613281 L 233.867188 28.613281 L 204.097656 58.375 L 204.097656 100.042969 L 170.113281 134.019531 " fill-opacity="1" fill-rule="nonzero"/></g><g clip-path="url(#id2)"><path fill="#ffffff" d="M 284.878906 299.863281 C 284.878906 302.125 283.039062 303.964844 280.777344 303.964844 C 278.515625 303.964844 276.675781 302.125 276.675781 299.863281 C 276.675781 297.601562 278.515625 295.765625 280.777344 295.765625 C 283.039062 295.765625 284.878906 297.601562 284.878906 299.863281 Z M 280.773438 349.84375 C 283.382812 349.84375 285.503906 347.726562 285.503906 345.113281 C 285.503906 342.5 283.382812 340.382812 280.773438 340.382812 C 278.597656 340.382812 276.785156 341.859375 276.234375 343.855469 L 234.914062 343.855469 L 206.613281 315.566406 L 206.613281 273.894531 L 173.671875 240.964844 L 220.988281 240.964844 L 234.246094 254.21875 L 234.246094 278.894531 L 256.480469 301.125 L 275.585938 301.125 C 276.15625 303.46875 278.257812 305.222656 280.777344 305.222656 C 283.734375 305.222656 286.136719 302.820312 286.136719 299.863281 C 286.136719 296.910156 283.734375 294.507812 280.777344 294.507812 C 278.257812 294.507812 276.15625 296.261719 275.585938 298.609375 L 257.527344 298.609375 L 236.761719 277.847656 L 236.761719 253.175781 L 222.03125 238.449219 L 157.5 238.449219 C 156.945312 236.453125 155.132812 234.976562 152.960938 234.976562 C 150.347656 234.976562 148.230469 237.09375 148.230469 239.707031 C 148.230469 242.320312 150.347656 244.4375 152.960938 244.4375 C 155.132812 244.4375 156.945312 242.960938 157.5 240.964844 L 170.113281 240.964844 L 204.097656 274.941406 L 204.097656 316.609375 L 233.867188 346.371094 L 276.234375 346.371094 C 276.785156 348.367188 278.597656 349.84375 280.773438 349.84375 " fill-opacity="1" fill-rule="nonzero"/></g><path fill="#ffffff" d="M 333.433594 246.574219 C 333.433594 248.835938 331.59375 250.675781 329.332031 250.675781 C 327.070312 250.675781 325.234375 248.835938 325.234375 246.574219 C 325.234375 244.3125 327.070312 242.476562 329.332031 242.476562 C 331.59375 242.476562 333.433594 244.3125 333.433594 246.574219 Z M 334.871094 271.261719 L 311.441406 247.835938 L 324.136719 247.835938 C 324.707031 250.179688 326.8125 251.933594 329.332031 251.933594 C 332.285156 251.933594 334.691406 249.527344 334.691406 246.574219 C 334.691406 243.621094 332.285156 241.21875 329.332031 241.21875 C 326.8125 241.21875 324.707031 242.972656 324.136719 245.320312 L 258.417969 245.320312 L 242.386719 229.292969 L 192.613281 229.292969 C 192.058594 227.296875 190.246094 225.820312 188.074219 225.820312 C 185.460938 225.820312 183.34375 227.9375 183.34375 230.550781 C 183.34375 233.160156 185.460938 235.277344 188.074219 235.277344 C 190.246094 235.277344 192.058594 233.804688 192.613281 231.808594 L 241.34375 231.808594 L 257.371094 247.835938 L 271.878906 247.835938 L 284.242188 260.195312 L 284.242188 273.777344 L 274.945312 283.078125 C 273.140625 282.054688 270.816406 282.292969 269.28125 283.828125 C 267.433594 285.675781 267.433594 288.671875 269.28125 290.515625 C 271.128906 292.363281 274.125 292.363281 275.972656 290.515625 C 277.507812 288.980469 277.746094 286.65625 276.726562 284.855469 L 286.757812 274.824219 L 286.757812 259.152344 L 275.433594 247.835938 L 307.878906 247.835938 L 332.355469 272.304688 L 332.355469 316.921875 C 330.359375 317.476562 328.882812 319.289062 328.882812 321.460938 C 328.882812 324.074219 331 326.191406 333.613281 326.191406 C 336.226562 326.191406 338.34375 324.074219 338.34375 321.460938 C 338.34375 319.289062 336.871094 317.476562 334.871094 316.921875 L 334.871094 271.261719 " fill-opacity="1" fill-rule="nonzero"/><path fill="#ffffff" d="M 318.355469 66.957031 C 318.355469 69.21875 316.515625 71.058594 314.253906 71.058594 C 311.992188 71.058594 310.152344 69.21875 310.152344 66.957031 C 310.152344 64.695312 311.992188 62.859375 314.253906 62.859375 C 316.515625 62.859375 318.355469 64.695312 318.355469 66.957031 Z M 330.917969 128.40625 C 330.917969 130.667969 329.078125 132.507812 326.816406 132.507812 C 324.554688 132.507812 322.714844 130.667969 322.714844 128.40625 C 322.714844 126.148438 324.554688 124.308594 326.816406 124.308594 C 329.078125 124.308594 330.917969 126.148438 330.917969 128.40625 Z M 308.894531 66.957031 C 308.894531 69.476562 310.648438 71.578125 312.992188 72.152344 L 312.992188 106.847656 L 292.6875 127.152344 L 275.433594 127.152344 L 286.757812 115.828125 L 286.757812 100.160156 L 276.726562 90.128906 C 277.746094 88.324219 277.507812 86 275.972656 84.464844 C 274.125 82.617188 271.128906 82.617188 269.28125 84.464844 C 267.433594 86.3125 267.433594 89.304688 269.28125 91.152344 C 270.816406 92.691406 273.144531 92.925781 274.945312 91.90625 L 284.242188 101.203125 L 284.242188 114.785156 L 271.878906 127.152344 L 257.371094 127.152344 L 241.34375 143.175781 L 192.613281 143.175781 C 192.058594 141.175781 190.246094 139.707031 188.074219 139.707031 C 185.460938 139.707031 183.34375 141.824219 183.34375 144.429688 C 183.34375 147.042969 185.460938 149.160156 188.074219 149.160156 C 190.246094 149.160156 192.058594 147.683594 192.613281 145.691406 L 242.386719 145.691406 L 258.417969 129.664062 L 321.621094 129.664062 C 322.191406 132.011719 324.296875 133.765625 326.816406 133.765625 C 329.773438 133.765625 332.175781 131.363281 332.175781 128.40625 C 332.175781 125.453125 329.773438 123.046875 326.816406 123.046875 C 324.296875 123.046875 322.191406 124.804688 321.621094 127.152344 L 296.246094 127.152344 L 315.511719 107.890625 L 315.511719 72.148438 C 317.859375 71.578125 319.609375 69.476562 319.609375 66.957031 C 319.609375 64.003906 317.207031 61.597656 314.253906 61.597656 C 311.296875 61.597656 308.894531 64.003906 308.894531 66.957031 " fill-opacity="1" fill-rule="nonzero"/><path fill="#ffffff" d="M 358.972656 96.09375 C 358.972656 98.269531 360.449219 100.078125 362.445312 100.632812 L 362.445312 143.109375 L 343.804688 161.746094 L 330.277344 161.746094 C 329.722656 159.746094 327.910156 158.273438 325.738281 158.273438 C 323.128906 158.273438 321.007812 160.390625 321.007812 163 C 321.007812 165.613281 323.128906 167.730469 325.738281 167.730469 C 327.910156 167.730469 329.722656 166.253906 330.277344 164.257812 L 344.847656 164.257812 L 364.964844 144.152344 L 364.964844 100.632812 C 366.960938 100.078125 368.433594 98.269531 368.433594 96.09375 C 368.433594 93.484375 366.316406 91.363281 363.703125 91.363281 C 361.089844 91.363281 358.972656 93.484375 358.972656 96.09375 " fill-opacity="1" fill-rule="nonzero"/><path fill="#ffffff" d="M 202.265625 199.386719 C 202.265625 201.648438 200.425781 203.488281 198.164062 203.488281 C 195.902344 203.488281 194.058594 201.648438 194.058594 199.386719 C 194.058594 197.128906 195.902344 195.289062 198.164062 195.289062 C 200.425781 195.289062 202.265625 197.128906 202.265625 199.386719 Z M 198.164062 204.746094 C 201.117188 204.746094 203.523438 202.34375 203.523438 199.386719 C 203.523438 196.433594 201.117188 194.03125 198.164062 194.03125 C 195.644531 194.03125 193.539062 195.785156 192.96875 198.132812 L 178.6875 198.132812 L 166.496094 185.945312 L 151.265625 185.945312 L 158.828125 178.386719 L 182.550781 178.386719 C 183.101562 180.382812 184.917969 181.859375 187.089844 181.859375 C 189.703125 181.859375 191.820312 179.742188 191.820312 177.128906 C 191.820312 174.519531 189.703125 172.402344 187.089844 172.402344 C 184.917969 172.402344 183.101562 173.875 182.550781 175.875 L 157.785156 175.875 L 147.707031 185.945312 L 54.953125 185.945312 L 54.953125 188.460938 L 165.453125 188.460938 L 177.640625 200.648438 L 192.96875 200.648438 C 193.539062 202.992188 195.644531 204.746094 198.164062 204.746094 " fill-opacity="1" fill-rule="nonzero"/><path fill="#ffffff" d="M 17.863281 187.199219 C 17.863281 171.449219 20.460938 155.589844 25.515625 144.730469 C 10.035156 154.566406 0.0507812 169.921875 0.0507812 187.199219 C 0.0507812 204.488281 10.035156 219.839844 25.515625 229.671875 C 20.460938 218.816406 17.863281 202.953125 17.863281 187.199219 " fill-opacity="1" fill-rule="nonzero"/><path fill="#ffffff" d="M 52.027344 233.390625 C 42.570312 233.101562 34.933594 212.539062 34.933594 187.199219 C 34.933594 161.863281 42.570312 141.304688 52.027344 141.011719 C 49.363281 137.355469 46.347656 135.277344 43.152344 135.277344 C 32.417969 135.277344 23.71875 158.523438 23.71875 187.199219 C 23.71875 215.878906 32.417969 239.128906 43.152344 239.128906 C 46.347656 239.128906 49.363281 237.050781 52.027344 233.390625 " fill-opacity="1" fill-rule="nonzero"/></svg>